<mxfile host="app.diagrams.net" modified="2021-10-13T14:28:35.562Z" agent="5.0 (Windows NT 10.0; Win64; x64) AppleWebKit/537.36 (KHTML, like Gecko) Chrome/94.0.4606.81 Safari/537.36" etag="z90ilBtPfeczMpdlYO-C" version="15.5.2" type="github">
  <diagram id="TM8Y5sb3uE1COexSdW0r" name="Page-1">
    <mxGraphModel dx="1240" dy="576" grid="1" gridSize="10" guides="1" tooltips="1" connect="1" arrows="1" fold="1" page="1" pageScale="1" pageWidth="850" pageHeight="1100" math="0" shadow="0">
      <root>
        <mxCell id="0" />
        <mxCell id="1" parent="0" />
        <mxCell id="OMsL3J6HoMqarPuf0it5-1" value="" style="rounded=0;whiteSpace=wrap;html=1;fillColor=#FFD166;" vertex="1" parent="1">
          <mxGeometry x="200" y="120" width="120" height="60" as="geometry" />
        </mxCell>
        <mxCell id="OMsL3J6HoMqarPuf0it5-2" value="&lt;b&gt;&lt;font style=&quot;font-size: 22px&quot;&gt;Rescaling Layer&lt;/font&gt;&lt;/b&gt;" style="text;html=1;align=center;verticalAlign=middle;resizable=0;points=[];autosize=1;strokeColor=none;fillColor=none;" vertex="1" parent="1">
          <mxGeometry x="335" y="140" width="180" height="20" as="geometry" />
        </mxCell>
        <mxCell id="OMsL3J6HoMqarPuf0it5-3" value="" style="rounded=0;whiteSpace=wrap;html=1;fillColor=#DB335B;" vertex="1" parent="1">
          <mxGeometry x="200" y="200" width="120" height="60" as="geometry" />
        </mxCell>
        <mxCell id="OMsL3J6HoMqarPuf0it5-4" value="" style="rounded=0;whiteSpace=wrap;html=1;fillColor=#06D6A0;" vertex="1" parent="1">
          <mxGeometry x="200" y="280" width="120" height="60" as="geometry" />
        </mxCell>
        <mxCell id="OMsL3J6HoMqarPuf0it5-5" value="" style="rounded=0;whiteSpace=wrap;html=1;fillColor=#118AB2;" vertex="1" parent="1">
          <mxGeometry x="200" y="360" width="120" height="60" as="geometry" />
        </mxCell>
        <mxCell id="OMsL3J6HoMqarPuf0it5-6" value="" style="rounded=0;whiteSpace=wrap;html=1;fillColor=#073C4E;" vertex="1" parent="1">
          <mxGeometry x="200" y="440" width="120" height="60" as="geometry" />
        </mxCell>
        <mxCell id="OMsL3J6HoMqarPuf0it5-7" value="" style="rounded=0;whiteSpace=wrap;html=1;fillColor=#FFD166;" vertex="1" parent="1">
          <mxGeometry x="200" y="520" width="120" height="60" as="geometry" />
        </mxCell>
        <mxCell id="OMsL3J6HoMqarPuf0it5-8" value="&lt;b&gt;&lt;font style=&quot;font-size: 22px&quot;&gt;Convolution 2D Layer&lt;/font&gt;&lt;/b&gt;" style="text;html=1;align=center;verticalAlign=middle;resizable=0;points=[];autosize=1;strokeColor=none;fillColor=none;" vertex="1" parent="1">
          <mxGeometry x="335" y="220" width="240" height="20" as="geometry" />
        </mxCell>
        <mxCell id="OMsL3J6HoMqarPuf0it5-9" value="&lt;b&gt;&lt;font style=&quot;font-size: 22px&quot;&gt;Max-Pooling 2D Layer&lt;/font&gt;&lt;/b&gt;" style="text;html=1;align=center;verticalAlign=middle;resizable=0;points=[];autosize=1;strokeColor=none;fillColor=none;" vertex="1" parent="1">
          <mxGeometry x="335" y="300" width="250" height="20" as="geometry" />
        </mxCell>
        <mxCell id="OMsL3J6HoMqarPuf0it5-10" value="&lt;b&gt;&lt;font style=&quot;font-size: 22px&quot;&gt;Dropout Layer&lt;/font&gt;&lt;/b&gt;" style="text;html=1;align=center;verticalAlign=middle;resizable=0;points=[];autosize=1;strokeColor=none;fillColor=none;" vertex="1" parent="1">
          <mxGeometry x="335" y="380" width="170" height="20" as="geometry" />
        </mxCell>
        <mxCell id="OMsL3J6HoMqarPuf0it5-11" value="&lt;b&gt;&lt;font style=&quot;font-size: 22px&quot;&gt;Flatten Layer&lt;/font&gt;&lt;/b&gt;" style="text;html=1;align=center;verticalAlign=middle;resizable=0;points=[];autosize=1;strokeColor=none;fillColor=none;" vertex="1" parent="1">
          <mxGeometry x="335" y="460" width="150" height="20" as="geometry" />
        </mxCell>
        <mxCell id="OMsL3J6HoMqarPuf0it5-12" value="&lt;b&gt;&lt;font style=&quot;font-size: 22px&quot;&gt;Dense Layer&lt;/font&gt;&lt;/b&gt;" style="text;html=1;align=center;verticalAlign=middle;resizable=0;points=[];autosize=1;strokeColor=none;fillColor=none;" vertex="1" parent="1">
          <mxGeometry x="335" y="540" width="150" height="20" as="geometry" />
        </mxCell>
      </root>
    </mxGraphModel>
  </diagram>
</mxfile>
